<svg width="24" height="26" viewBox="0 0 24 26" fill="none" xmlns="http://www.w3.org/2000/svg">
<path d="M23.3038 20.7797L17.1205 14.5964H15.9655L13.0021 17.5597V18.7147L19.1855 24.898C19.6405 25.353 20.3755 25.353 20.8305 24.898L23.3038 22.4247C23.7588 21.9814 23.7588 21.2347 23.3038 20.7797ZM20.0021 22.4364L15.0555 17.4897L15.8838 16.6614L20.8305 21.608L20.0021 22.4364Z" fill="#F2F2F2"/>
<path d="M18.2521 11.4697L19.8971 9.82471L22.3705 12.298C23.7355 10.933 23.7355 8.71638 22.3705 7.35138L18.2405 3.22138L16.5955 4.86638V1.57638L15.7788 0.748047L11.6488 4.87805L12.4771 5.70638H15.7788L14.1338 7.35138L15.3705 8.58805L11.9988 11.9597L7.18047 7.14138V5.48471L3.65714 1.96138L0.355469 5.26305L3.89047 8.79805H5.53547L10.3538 13.6164L9.36214 14.608H6.8888L0.705469 20.7914C0.250469 21.2464 0.250469 21.9814 0.705469 22.4364L3.1788 24.9097C3.6338 25.3647 4.3688 25.3647 4.8238 24.9097L11.0071 18.7264V16.253L17.0155 10.2447L18.2521 11.4697ZM8.94213 17.478L3.99547 22.4247L3.16714 21.5964L8.1138 16.6497L8.94213 17.478Z" fill="#F2F2F2"/>
</svg>
